<?xml version="1.0" encoding="utf-8"?>
<!-- Generator: Adobe Illustrator 25.2.0, SVG Export Plug-In . SVG Version: 6.00 Build 0)  -->
<svg version="1.1" id="Warstwa_1" xmlns="http://www.w3.org/2000/svg" xmlns:xlink="http://www.w3.org/1999/xlink" x="0px" y="0px"
	 viewBox="0 0 28 28" enable-background="new 0 0 28 28" xml:space="preserve">
<path id="Kształt_515" fill-rule="evenodd" clip-rule="evenodd" fill="#FFFFFF" d="M23,3H5C3.9,3,3,3.9,3,5v18c0,1.1,0.9,2,2,2h18
	c1.1,0,2-0.9,2-2V5C25,3.9,24.1,3,23,3z M9.4,21.3H5.7V11.2h3.7V21.3z M7.6,10c-0.9,0.1-1.7-0.6-1.8-1.5c0,0,0-0.1,0-0.1
	c-0.1-1,0.6-1.9,1.6-2c1-0.1,1.9,0.6,2,1.6c0.1,1-0.6,1.9-1.6,2C7.7,10,7.6,10,7.6,10L7.6,10z M22.3,21.3h-3.7v-5.5
	c0.1-0.9-0.4-1.7-1.3-1.8c-0.9,0-1.5,0.8-1.5,1.7c0,0.1,0,0.1,0,0.2v5.5h-3.7V11.2h3.7v1.5c0.7-1,2-1.6,3.2-1.5
	c1.7,0,3.2,1.4,3.2,4.6L22.3,21.3L22.3,21.3z"/>
</svg>
