<?xml version="1.0" encoding="utf-8"?>
<!-- Generator: Adobe Illustrator 25.2.0, SVG Export Plug-In . SVG Version: 6.00 Build 0)  -->
<svg version="1.1" id="Warstwa_1" xmlns="http://www.w3.org/2000/svg" xmlns:xlink="http://www.w3.org/1999/xlink" x="0px" y="0px"
	 viewBox="0 0 28 28" enable-background="new 0 0 28 28" xml:space="preserve">
<path id="Kształt_513" fill-rule="evenodd" clip-rule="evenodd" fill="#FFFFFF" d="M25.1,14.1C25.1,8,20.1,3,14,3
	C7.9,3,2.9,8,2.9,14.1c0,5.4,4,10.1,9.3,10.9v-7.7H9.5v-3.2h2.8v-2.4c0-2.8,1.7-4.3,4.2-4.3c0.8,0,1.7,0.1,2.5,0.2v2.7h-1.4
	c-0.9-0.1-1.7,0.5-1.8,1.4c0,0.1,0,0.2,0,0.3v2.1h3.1l-0.5,3.2h-2.6V25C21.1,24.1,25.1,19.5,25.1,14.1z"/>
</svg>
