<?xml version="1.0" encoding="utf-8"?>
<!-- Generator: Adobe Illustrator 25.2.0, SVG Export Plug-In . SVG Version: 6.00 Build 0)  -->
<svg version="1.1" id="Warstwa_1" xmlns="http://www.w3.org/2000/svg" xmlns:xlink="http://www.w3.org/1999/xlink" x="0px" y="0px"
	 viewBox="0 0 28 28" enable-background="new 0 0 28 28" xml:space="preserve">
	<g>
		<path d="M27.4145 7.06092C27.0919 5.85545 26.1445 4.90813 24.939 4.58545C22.7564 4 14 4 14 4C14 4 5.24366 4
		3.06091 4.58545C1.85545 4.90813 0.908133 5.85545 0.585446 7.06092C1.75246e-07 9.24366 0 13.8005 0 13.8005C0
		13.8005 1.75246e-07 18.3573 0.585446 20.54C0.908133 21.7455 1.85545 22.6928 3.06091 23.0154C5.24366 23.6009
		14 23.6009 14 23.6009C14 23.6009 22.7564 23.6009 24.939 23.0154C26.1445 22.6928 27.0919 21.7455 27.4145 20.54C28
		18.3573 28 13.8005 28 13.8005C28 13.8005 27.9976 9.24366 27.4145 7.06092Z" fill="white"/>
		<path d="M11.1973 18.0003L18.4716 13.8009L11.1973 9.60129V18.0003Z"/>
	</g>
</svg>
