<svg id="Layer_2" data-name="Layer 2" xmlns="http://www.w3.org/2000/svg" viewBox="0 0 264.67 62.85"><defs><style>.cls-1{fill:#009ac7;}.cls-2{fill:#fff;}</style></defs><path class="cls-1" d="M215,46q2.23,2.41,4.64,5l5.92-.13c0-1.48.1-3,.15-4.61C222.28,46.18,218.7,46.1,215,46Z" transform="translate(-0.19 -21.58)"/><path class="cls-1" d="M227.49,46.3l-.12,4.52c23.25-.58,37.49-1.38,37.49-2.26S250.68,46.89,227.49,46.3Z" transform="translate(-0.19 -21.58)"/><path class="cls-1" d="M45.27,51.13C14.6,50.54.19,49.61.19,48.58s15.59-2,47.16-2.62Z" transform="translate(-0.19 -21.58)"/><path class="cls-1" d="M98.29,48.47l0-3.09c-17,.09-35.35.28-49.11.54l-1.74,5.26c14.13.28,40.16.26,50.87.35Z" transform="translate(-0.19 -21.58)"/><path class="cls-1" d="M115.78,45.75a34.71,34.71,0,0,0,3.59,6H131c28.43,0,58.36-.4,79.93-.76l-4.42-5c-20.57-.32-49.23-.74-75.51-.74l-14.74,0C116,45.43,115.78,45.55,115.78,45.75Z" transform="translate(-0.19 -21.58)"/><path class="cls-2" d="M42.92,82.1H41.37l-.61-1.78H37.92l-.58,1.78H35.82l2.75-7.88h1.51ZM40.29,79l-1-2.92-1,2.92Z" transform="translate(-0.19 -21.58)"/><path class="cls-2" d="M43.68,76.39h1.25v.78a2,2,0,0,1,1.61-.92,1.56,1.56,0,0,1,.85.23,1.67,1.67,0,0,1,.6.68,2.44,2.44,0,0,1,.73-.68,1.65,1.65,0,0,1,.83-.23,1.75,1.75,0,0,1,1,.26,1.53,1.53,0,0,1,.58.75,3.41,3.41,0,0,1,.14,1.18V82.1H49.88V78.83a2.59,2.59,0,0,0-.14-1.1.63.63,0,0,0-.58-.32.87.87,0,0,0-.54.19,1.1,1.1,0,0,0-.36.57,4.71,4.71,0,0,0-.11,1.18V82.1H46.79V79a4.73,4.73,0,0,0-.07-1.07.73.73,0,0,0-.23-.36.66.66,0,0,0-.42-.12.9.9,0,0,0-.56.19,1,1,0,0,0-.36.54A4.6,4.6,0,0,0,45,79.32V82.1H43.68Z" transform="translate(-0.19 -21.58)"/><path class="cls-2" d="M55.65,80.3l1.35.25a2.42,2.42,0,0,1-.82,1.26,2.28,2.28,0,0,1-1.41.43,2.21,2.21,0,0,1-2-1,3.54,3.54,0,0,1-.5-2A3.43,3.43,0,0,1,53,77.06a2.11,2.11,0,0,1,1.69-.81,2.18,2.18,0,0,1,1.81.85,4.07,4.07,0,0,1,.63,2.59h-3.4a1.65,1.65,0,0,0,.33,1,.94.94,0,0,0,.77.37.76.76,0,0,0,.54-.19A1.21,1.21,0,0,0,55.65,80.3Zm.09-1.53a1.54,1.54,0,0,0-.31-1,.9.9,0,0,0-1.44,0,1.5,1.5,0,0,0-.29,1Z" transform="translate(-0.19 -21.58)"/><path class="cls-2" d="M59.59,82.1H58.23V76.39H59.5v.82a2.43,2.43,0,0,1,.58-.77,1,1,0,0,1,.58-.19,1.6,1.6,0,0,1,.89.29l-.42,1.32a1.13,1.13,0,0,0-.63-.25.68.68,0,0,0-.48.18,1.09,1.09,0,0,0-.31.63,9.37,9.37,0,0,0-.12,1.91Z" transform="translate(-0.19 -21.58)"/><path class="cls-2" d="M62.23,75.61V74.22h1.36v1.39Zm0,6.49V76.39h1.36V82.1Z" transform="translate(-0.19 -21.58)"/><path class="cls-2" d="M69.57,78.07l-1.35.26a1.11,1.11,0,0,0-.31-.67.9.9,0,0,0-.62-.22,1,1,0,0,0-.81.39,2.2,2.2,0,0,0-.3,1.31,2.57,2.57,0,0,0,.3,1.44,1,1,0,0,0,.83.42.85.85,0,0,0,.63-.24,1.65,1.65,0,0,0,.35-.85l1.34.25a2.77,2.77,0,0,1-.8,1.55,2.52,2.52,0,0,1-3.38-.26,3.34,3.34,0,0,1-.66-2.2A3.3,3.3,0,0,1,65.46,77a2.57,2.57,0,0,1,3.31-.34A2.5,2.5,0,0,1,69.57,78.07Z" transform="translate(-0.19 -21.58)"/><path class="cls-2" d="M71.69,78.13l-1.22-.25a2.25,2.25,0,0,1,.71-1.23,2.45,2.45,0,0,1,1.51-.4,3,3,0,0,1,1.35.24,1.46,1.46,0,0,1,.62.61,3.48,3.48,0,0,1,.18,1.35v1.77a7.41,7.41,0,0,0,.06,1.11,4,4,0,0,0,.25.77H73.8a4.32,4.32,0,0,1-.13-.44,1.71,1.71,0,0,0,0-.18,2.58,2.58,0,0,1-.74.57,2,2,0,0,1-.85.19,1.65,1.65,0,0,1-1.25-.48,1.69,1.69,0,0,1-.45-1.21,1.78,1.78,0,0,1,.21-.87,1.47,1.47,0,0,1,.58-.58,4.16,4.16,0,0,1,1.07-.35,6.82,6.82,0,0,0,1.31-.37v-.15a.83.83,0,0,0-.19-.63,1,1,0,0,0-.73-.19.9.9,0,0,0-.57.16A1.09,1.09,0,0,0,71.69,78.13Zm1.81,1.23a6.25,6.25,0,0,1-.82.23,2.23,2.23,0,0,0-.73.27.67.67,0,0,0-.26.53.77.77,0,0,0,.21.55.67.67,0,0,0,.53.23,1.07,1.07,0,0,0,.7-.26,1,1,0,0,0,.32-.51,3.76,3.76,0,0,0,0-.74Z" transform="translate(-0.19 -21.58)"/><path class="cls-2" d="M81,82.1H79.61V79.18a4.84,4.84,0,0,0-.09-1.2.85.85,0,0,0-.28-.42.75.75,0,0,0-.47-.15,1,1,0,0,0-.63.22,1,1,0,0,0-.38.57,5.27,5.27,0,0,0-.11,1.31V82.1H76.29V76.39h1.27v.84a2,2,0,0,1,1.69-1,1.82,1.82,0,0,1,.81.18,1.38,1.38,0,0,1,.56.46,1.74,1.74,0,0,1,.27.64,5.26,5.26,0,0,1,.07,1Z" transform="translate(-0.19 -21.58)"/><path class="cls-2" d="M85.32,82.1V74.22h3a4.69,4.69,0,0,1,1.65.21,1.76,1.76,0,0,1,.82.76,2.43,2.43,0,0,1,.31,1.24,2.27,2.27,0,0,1-.46,1.47,2.14,2.14,0,0,1-1.39.73,3.31,3.31,0,0,1,.76.66,9,9,0,0,1,.81,1.27l.86,1.54H90l-1-1.72a10.94,10.94,0,0,0-.75-1.15,1.16,1.16,0,0,0-.43-.33,2.15,2.15,0,0,0-.72-.08h-.29V82.1Zm1.44-4.53h1a5.06,5.06,0,0,0,1.28-.1.83.83,0,0,0,.4-.34,1.2,1.2,0,0,0,.14-.59,1,1,0,0,0-.19-.65.78.78,0,0,0-.53-.31,9.67,9.67,0,0,0-1,0H86.76Z" transform="translate(-0.19 -21.58)"/><path class="cls-2" d="M95.51,80.3l1.36.25A2.5,2.5,0,0,1,96,81.81a2.28,2.28,0,0,1-1.41.43,2.21,2.21,0,0,1-2-1,3.54,3.54,0,0,1-.5-2,3.43,3.43,0,0,1,.66-2.23,2.11,2.11,0,0,1,1.69-.81,2.18,2.18,0,0,1,1.81.85,4.07,4.07,0,0,1,.63,2.59h-3.4a1.65,1.65,0,0,0,.33,1,.94.94,0,0,0,.77.37.76.76,0,0,0,.54-.19A1.21,1.21,0,0,0,95.51,80.3Zm.09-1.53a1.54,1.54,0,0,0-.31-1,.9.9,0,0,0-1.44,0,1.56,1.56,0,0,0-.29,1Z" transform="translate(-0.19 -21.58)"/><path class="cls-2" d="M98,82.47l1.54.19a.67.67,0,0,0,.19.44.9.9,0,0,0,.6.17,1.44,1.44,0,0,0,.8-.18.73.73,0,0,0,.27-.38,2.6,2.6,0,0,0,.07-.7v-.83a1.81,1.81,0,0,1-1.54.92,1.85,1.85,0,0,1-1.63-1,3.54,3.54,0,0,1-.48-1.91,3.43,3.43,0,0,1,.62-2.2,2,2,0,0,1,1.55-.76,1.84,1.84,0,0,1,1.57.93v-.79h1.26v5.13A5.72,5.72,0,0,1,102.7,83a1.91,1.91,0,0,1-.42.79,1.73,1.73,0,0,1-.72.44,3.47,3.47,0,0,1-1.15.16,2.68,2.68,0,0,1-1.85-.5A1.61,1.61,0,0,1,98,82.66,1.34,1.34,0,0,1,98,82.47Zm1.22-3.35a2.29,2.29,0,0,0,.31,1.34.94.94,0,0,0,.78.42,1,1,0,0,0,.83-.44,2,2,0,0,0,.34-1.28,2.25,2.25,0,0,0-.32-1.32,1,1,0,0,0-.83-.43,1,1,0,0,0-.8.42A2.15,2.15,0,0,0,99.24,79.12Z" transform="translate(-0.19 -21.58)"/><path class="cls-2" d="M104.29,75.61V74.22h1.36v1.39Zm0,6.49V76.39h1.36V82.1Z" transform="translate(-0.19 -21.58)"/><path class="cls-2" d="M106.67,80.49l1.36-.24a1.2,1.2,0,0,0,.35.67,1.13,1.13,0,0,0,.74.22,1.26,1.26,0,0,0,.79-.21.51.51,0,0,0,.18-.41.39.39,0,0,0-.1-.28.9.9,0,0,0-.45-.2,6.8,6.8,0,0,1-2.09-.75,1.49,1.49,0,0,1-.61-1.28,1.67,1.67,0,0,1,.53-1.25,2.26,2.26,0,0,1,1.63-.51,2.65,2.65,0,0,1,1.57.38,2,2,0,0,1,.71,1.12L110,78a1,1,0,0,0-.32-.51,1,1,0,0,0-.65-.18,1.35,1.35,0,0,0-.77.17.37.37,0,0,0-.15.31.32.32,0,0,0,.13.27,4.6,4.6,0,0,0,1.27.43,3.54,3.54,0,0,1,1.52.68,1.48,1.48,0,0,1,.42,1.12,1.83,1.83,0,0,1-.59,1.36,2.4,2.4,0,0,1-1.74.57,2.68,2.68,0,0,1-1.66-.47A2.2,2.2,0,0,1,106.67,80.49Z" transform="translate(-0.19 -21.58)"/><path class="cls-2" d="M115.1,76.39V77.6h-.92v2.3a5.73,5.73,0,0,0,0,.82.29.29,0,0,0,.11.19.36.36,0,0,0,.23.08,1.49,1.49,0,0,0,.53-.15L115.2,82a2.46,2.46,0,0,1-1.06.23,1.59,1.59,0,0,1-.66-.14,1,1,0,0,1-.43-.36,1.42,1.42,0,0,1-.18-.58,7.78,7.78,0,0,1-.05-1.07V77.6h-.62V76.39h.62V75.25l1.36-.89v2Z" transform="translate(-0.19 -21.58)"/><path class="cls-2" d="M117.45,82.1h-1.36V76.39h1.27v.82a2.44,2.44,0,0,1,.57-.77,1,1,0,0,1,.59-.19,1.54,1.54,0,0,1,.88.29L119,77.86a1.16,1.16,0,0,0-.64-.25.7.7,0,0,0-.48.18,1.23,1.23,0,0,0-.31.63,10.51,10.51,0,0,0-.11,1.91Z" transform="translate(-0.19 -21.58)"/><path class="cls-2" d="M119.45,76.39h1.45l1.23,4,1.19-4h1.41l-1.81,5.49-.32,1a4.11,4.11,0,0,1-.35.77,1.58,1.58,0,0,1-.37.43,1.52,1.52,0,0,1-.51.25,2.53,2.53,0,0,1-.7.09,3.31,3.31,0,0,1-.77-.09l-.12-1.18a2.46,2.46,0,0,0,.57.07.81.81,0,0,0,.71-.31,2.36,2.36,0,0,0,.35-.8Z" transform="translate(-0.19 -21.58)"/><path class="cls-2" d="M128,76.39h.75V76a3.24,3.24,0,0,1,.14-1.08,1.23,1.23,0,0,1,.51-.58,1.89,1.89,0,0,1,.94-.22,3.8,3.8,0,0,1,1.15.19l-.18,1a2.87,2.87,0,0,0-.64-.08.55.55,0,0,0-.43.15,1,1,0,0,0-.13.6v.4h1v1.19h-1V82.1H128.7V77.58H128Z" transform="translate(-0.19 -21.58)"/><path class="cls-2" d="M131.61,79.16A3.29,3.29,0,0,1,132,77.7a2.35,2.35,0,0,1,.94-1.07,2.6,2.6,0,0,1,1.38-.38,2.43,2.43,0,0,1,1.91.85,3.45,3.45,0,0,1,0,4.28,2.42,2.42,0,0,1-1.9.86,2.73,2.73,0,0,1-1.35-.36,2.28,2.28,0,0,1-1-1A3.73,3.73,0,0,1,131.61,79.16Zm1.39.09a2,2,0,0,0,.37,1.3,1.11,1.11,0,0,0,.9.45,1.14,1.14,0,0,0,.9-.45,2.08,2.08,0,0,0,.36-1.32,2,2,0,0,0-.36-1.29,1.14,1.14,0,0,0-.9-.45,1.11,1.11,0,0,0-.9.45A2,2,0,0,0,133,79.25Z" transform="translate(-0.19 -21.58)"/><path class="cls-2" d="M139.4,82.1H138V76.39h1.26v.82a2.59,2.59,0,0,1,.58-.77,1,1,0,0,1,.59-.19,1.57,1.57,0,0,1,.88.29l-.41,1.32a1.16,1.16,0,0,0-.64-.25.68.68,0,0,0-.48.18,1.23,1.23,0,0,0-.31.63,10.51,10.51,0,0,0-.11,1.91Z" transform="translate(-0.19 -21.58)"/><path class="cls-2" d="M144.86,82.1V74.22h1.43V82.1Z" transform="translate(-0.19 -21.58)"/><path class="cls-2" d="M152.41,82.1h-1.36V79.18A4.84,4.84,0,0,0,151,78a.79.79,0,0,0-.28-.42.73.73,0,0,0-.47-.15,1,1,0,0,0-.63.22,1.09,1.09,0,0,0-.38.57,5.42,5.42,0,0,0-.1,1.31V82.1h-1.36V76.39H149v.84a2,2,0,0,1,1.69-1,1.86,1.86,0,0,1,.82.18,1.45,1.45,0,0,1,.56.46,1.73,1.73,0,0,1,.26.64,5.12,5.12,0,0,1,.08,1Z" transform="translate(-0.19 -21.58)"/><path class="cls-2" d="M156.24,76.39V77.6h-.92v2.3a5.73,5.73,0,0,0,0,.82.29.29,0,0,0,.11.19.38.38,0,0,0,.23.08,1.49,1.49,0,0,0,.53-.15l.12,1.17a2.43,2.43,0,0,1-1.06.23,1.59,1.59,0,0,1-.66-.14,1,1,0,0,1-.43-.36,1.42,1.42,0,0,1-.18-.58,7.78,7.78,0,0,1,0-1.07V77.6h-.62V76.39H154V75.25l1.36-.89v2Z" transform="translate(-0.19 -21.58)"/><path class="cls-2" d="M160.25,80.3l1.36.25a2.49,2.49,0,0,1-.82,1.26,2.33,2.33,0,0,1-1.42.43,2.21,2.21,0,0,1-2-1,3.62,3.62,0,0,1-.5-2,3.43,3.43,0,0,1,.66-2.23,2.11,2.11,0,0,1,1.69-.81,2.18,2.18,0,0,1,1.81.85,4.13,4.13,0,0,1,.64,2.59h-3.41a1.65,1.65,0,0,0,.33,1,1,1,0,0,0,.78.37.75.75,0,0,0,.53-.19A1.14,1.14,0,0,0,160.25,80.3Zm.09-1.53a1.6,1.6,0,0,0-.3-1,.91.91,0,0,0-1.45,0,1.5,1.5,0,0,0-.28,1Z" transform="translate(-0.19 -21.58)"/><path class="cls-2" d="M164.2,82.1h-1.36V76.39h1.26v.82a2.59,2.59,0,0,1,.58-.77,1,1,0,0,1,.58-.19,1.57,1.57,0,0,1,.89.29l-.41,1.32a1.16,1.16,0,0,0-.64-.25.68.68,0,0,0-.48.18,1.15,1.15,0,0,0-.31.63,9.63,9.63,0,0,0-.11,1.91Z" transform="translate(-0.19 -21.58)"/><path class="cls-2" d="M171.51,82.1h-1.36V79.18a4.84,4.84,0,0,0-.09-1.2.79.79,0,0,0-.28-.42.73.73,0,0,0-.47-.15,1,1,0,0,0-.63.22,1.09,1.09,0,0,0-.38.57,5.42,5.42,0,0,0-.1,1.31V82.1h-1.36V76.39h1.26v.84a2,2,0,0,1,1.69-1,1.86,1.86,0,0,1,.82.18,1.53,1.53,0,0,1,.56.46,1.92,1.92,0,0,1,.26.64,5.12,5.12,0,0,1,.08,1Z" transform="translate(-0.19 -21.58)"/><path class="cls-2" d="M176,80.3l1.36.25a2.49,2.49,0,0,1-.82,1.26,2.32,2.32,0,0,1-1.41.43,2.21,2.21,0,0,1-2-1,3.54,3.54,0,0,1-.51-2,3.37,3.37,0,0,1,.67-2.23,2.07,2.07,0,0,1,1.68-.81,2.18,2.18,0,0,1,1.81.85,4.06,4.06,0,0,1,.64,2.59H174a1.65,1.65,0,0,0,.33,1,1,1,0,0,0,.78.37.79.79,0,0,0,.54-.19A1.21,1.21,0,0,0,176,80.3Zm.09-1.53a1.6,1.6,0,0,0-.3-1,.91.91,0,0,0-1.45,0,1.5,1.5,0,0,0-.28,1Z" transform="translate(-0.19 -21.58)"/><path class="cls-2" d="M181,76.39V77.6H180v2.3a5.73,5.73,0,0,0,0,.82.35.35,0,0,0,.12.19.33.33,0,0,0,.22.08,1.44,1.44,0,0,0,.53-.15L181,82a2.39,2.39,0,0,1-1.06.23,1.51,1.51,0,0,1-.65-.14.92.92,0,0,1-.43-.36,1.41,1.41,0,0,1-.19-.58,8.36,8.36,0,0,1,0-1.07V77.6H178V76.39h.63V75.25l1.35-.89v2Z" transform="translate(-0.19 -21.58)"/><path class="cls-2" d="M184.86,82.1V74.22h1.39l2.91,5.26V74.22h1.33V82.1h-1.43L186.19,77V82.1Z" transform="translate(-0.19 -21.58)"/><path class="cls-2" d="M195.47,82.1v-.86a2.07,2.07,0,0,1-.74.73,1.87,1.87,0,0,1-1,.27,1.76,1.76,0,0,1-.93-.26,1.38,1.38,0,0,1-.59-.71,3.27,3.27,0,0,1-.19-1.26V76.39h1.36V79a8.21,8.21,0,0,0,.07,1.47.88.88,0,0,0,.28.43.76.76,0,0,0,.51.16,1,1,0,0,0,.62-.21,1.07,1.07,0,0,0,.39-.53,7.32,7.32,0,0,0,.1-1.54V76.39h1.36V82.1Z" transform="translate(-0.19 -21.58)"/><path class="cls-2" d="M198.13,76.39h1.25v.78a2,2,0,0,1,1.61-.92,1.62,1.62,0,0,1,.86.23,1.65,1.65,0,0,1,.59.68,2.56,2.56,0,0,1,.73-.68,1.66,1.66,0,0,1,.84-.23,1.72,1.72,0,0,1,1,.26,1.55,1.55,0,0,1,.59.75,3.67,3.67,0,0,1,.14,1.18V82.1h-1.36V78.83a2.76,2.76,0,0,0-.14-1.1.64.64,0,0,0-.58-.32.85.85,0,0,0-.54.19,1.12,1.12,0,0,0-.37.57,4.71,4.71,0,0,0-.11,1.18V82.1h-1.36V79a4.73,4.73,0,0,0-.07-1.07.66.66,0,0,0-.23-.36.65.65,0,0,0-.41-.12.91.91,0,0,0-.57.19,1,1,0,0,0-.36.54,4.6,4.6,0,0,0-.11,1.18V82.1h-1.36Z" transform="translate(-0.19 -21.58)"/><path class="cls-2" d="M207.08,82.1V74.22h1.36v2.83a1.87,1.87,0,0,1,1.49-.8,1.91,1.91,0,0,1,1.55.76,3.39,3.39,0,0,1,.62,2.18,3.58,3.58,0,0,1-.63,2.26,1.9,1.9,0,0,1-1.52.79,1.8,1.8,0,0,1-.87-.25,2.21,2.21,0,0,1-.73-.73v.84Zm1.35-3a2.63,2.63,0,0,0,.25,1.32,1.06,1.06,0,0,0,.94.61.93.93,0,0,0,.77-.43,2.33,2.33,0,0,0,.32-1.36,2.48,2.48,0,0,0-.32-1.42,1,1,0,0,0-.82-.43,1,1,0,0,0-.82.42A2.12,2.12,0,0,0,208.43,79.12Z" transform="translate(-0.19 -21.58)"/><path class="cls-2" d="M216.24,80.3l1.36.25a2.42,2.42,0,0,1-.82,1.26,2.28,2.28,0,0,1-1.41.43,2.21,2.21,0,0,1-2-1,3.54,3.54,0,0,1-.51-2,3.43,3.43,0,0,1,.67-2.23,2.11,2.11,0,0,1,1.69-.81,2.19,2.19,0,0,1,1.81.85,4.07,4.07,0,0,1,.63,2.59h-3.4a1.7,1.7,0,0,0,.32,1,1,1,0,0,0,.78.37.76.76,0,0,0,.54-.19A1.21,1.21,0,0,0,216.24,80.3Zm.1-1.53a1.6,1.6,0,0,0-.31-1,.9.9,0,0,0-1.44,0,1.5,1.5,0,0,0-.29,1Z" transform="translate(-0.19 -21.58)"/><path class="cls-2" d="M220.19,82.1h-1.36V76.39h1.27v.82a2.44,2.44,0,0,1,.57-.77,1,1,0,0,1,.59-.19,1.6,1.6,0,0,1,.89.29l-.42,1.32a1.16,1.16,0,0,0-.63-.25.72.72,0,0,0-.49.18,1.23,1.23,0,0,0-.31.63,10.51,10.51,0,0,0-.11,1.91Z" transform="translate(-0.19 -21.58)"/><path class="cls-2" d="M222.36,80.49l1.36-.24a1.15,1.15,0,0,0,.36.67,1.09,1.09,0,0,0,.74.22,1.21,1.21,0,0,0,.78-.21.52.52,0,0,0,.19-.41.43.43,0,0,0-.1-.28.94.94,0,0,0-.46-.2,6.92,6.92,0,0,1-2.09-.75,1.51,1.51,0,0,1-.6-1.28,1.66,1.66,0,0,1,.52-1.25,2.29,2.29,0,0,1,1.64-.51,2.63,2.63,0,0,1,1.56.38,1.92,1.92,0,0,1,.71,1.12l-1.28.27a.94.94,0,0,0-.31-.51,1.06,1.06,0,0,0-.66-.18,1.39,1.39,0,0,0-.77.17.37.37,0,0,0-.15.31.32.32,0,0,0,.13.27,4.74,4.74,0,0,0,1.27.43,3.49,3.49,0,0,1,1.52.68,1.48,1.48,0,0,1,.42,1.12,1.82,1.82,0,0,1-.58,1.36,2.4,2.4,0,0,1-1.74.57,2.66,2.66,0,0,1-1.66-.47A2.21,2.21,0,0,1,222.36,80.49Z" transform="translate(-0.19 -21.58)"/><path class="cls-2" d="M47,64.88c-3.24,0-3.24-1.43-3.24-2.24,0-1.06.81-3.93,3.43-10.78a5,5,0,0,1,.31-.68h-.07l1.74-5.26h.05c1.46-4.57,5.47-15.68,5.82-15.68h.13l5.6,15.49,6.5-.09c-4.2-11-8.46-22.65-8.74-23.32s-.5-.74-1.06-.74c-.75,0-1,0-1.18.56-6,15.07-10.84,28.53-14.64,39.56-.81,2.43-2,3.18-3.18,3.18-1.68,0-2.31.31-2.31.81,0,.75.13,1.06.44,1.06.5,0,1.12-.13,4.92-.13,7.42,0,8.23.13,8.73.13s.74-.25.74-1S50.73,64.88,47,64.88Z" transform="translate(-0.19 -21.58)"/><path class="cls-2" d="M78.46,64.88c-2.43,0-3.74-.69-4.73-3-1.11-2.52-2.6-6.23-4.21-10.38l-6.6-.08c1.31,3.31,4.39,10.72,4.39,12.08,0,1.06-.81,1.37-3.3,1.37-1.25,0-2.62.12-2.62.75s.06,1.12.31,1.12c.43,0,.87-.13,9.28-.13,7.54,0,8,.13,8.66.13s.69-.75.69-1.19S79,64.88,78.46,64.88Z" transform="translate(-0.19 -21.58)"/><path class="cls-2" d="M104.44,45V28.49c0-4.11.87-4.42,4.67-4.42,7.16,0,10.65,4.61,10.65,10.34S117,45,109.54,45ZM98.08,62.14c-.06,1.68-.44,2.74-4.42,2.74-1.75,0-1.75.37-1.75,1.06s0,.81.5.81.69-.13,8.91-.13c9.22,0,9.47.13,9.91.13s.49-.25.49-.81,0-1.06-1.74-1.06c-4.92,0-5.3-1.06-5.36-2.74-.12-3.12-.18-15.27-.18-15.27,2.55-.06,4-.06,6.54,2.49,2.24,2.25,6.35,10.16,11.52,16.89.38.5.57.5,1.13.5a41.33,41.33,0,0,1,4.42-.13,49.58,49.58,0,0,1,5.11.13c.56,0,.75-.25.75-.94,0-.37,0-.74-.44-.74-3.74-.07-4.3-.81-8.78-6.23-5.8-7-8.91-12.72-8.91-13.09s.37-.37.68-.5c6.85-2.74,10-5.67,10-11.65,0-9-8.85-11.4-16.07-11.4-3.68,0-7.48.25-9.1.25-3.93,0-8.41-.25-8.91-.25s-.56.43-.56.81c0,.56,0,1.06.68,1.06,4.49,0,5.55.5,5.61,4.17C98.2,31.11,98.2,59,98.08,62.14Z" transform="translate(-0.19 -21.58)"/><path class="cls-2" d="M147.62,24.07c5.42,0,6.48.5,6.54,4.17.06,2.87.12,17.12.12,17.12l6.17,0s.06-14.28.13-17.15c.06-3.67,1.12-4.17,6.54-4.17.69,0,.69-.5.69-1.06,0-.38-.13-.81-.56-.81s-5.92.25-9.91.25-9.35-.25-9.85-.25-.56.43-.56.81C146.93,23.57,146.93,24.07,147.62,24.07Z" transform="translate(-0.19 -21.58)"/><path class="cls-2" d="M166,64.88c-4.92,0-5.3-1.06-5.36-2.74-.13-3.12-.19-7.17-.19-9.85v-.56c-2,0-4.09,0-6.17,0v.53c0,2.68-.06,6.73-.18,9.85-.06,1.68-.44,2.74-5.36,2.74-1.75,0-1.75.37-1.75,1.06s0,.81.5.81.69-.13,9.85-.13,9.47.13,9.91.13.49-.25.49-.81S167.74,64.88,166,64.88Z" transform="translate(-0.19 -21.58)"/><path class="cls-2" d="M196.47,64.88c-3.43,0-4.86-1-4.86-3,0-1-.17-4.6-.24-10.47l-2,0c-.19,6.22-.43,10.09-.46,10.74-.25,2.43-2.74,2.74-4.24,2.74-.75,0-2.8.12-2.8.68,0,.75,0,1.19.62,1.19.44,0,1-.13,8-.13,7.66,0,8,.13,8.53.13s.63-.19.63-.94S199.65,64.88,196.47,64.88Z" transform="translate(-0.19 -21.58)"/><path class="cls-2" d="M235.16,22.2c-.37,0-6.79.25-8.16.25-1.74,0-8-.25-9-.25-.5,0-.69.37-.69,1s.13.88.81.88c5.42,0,7.79.37,7.79,9.9,0,6.11-.31,17.14-.62,22.93-14-14.33-23.81-26.1-31.09-34.33-.19-.19-.32-.37-.5-.37-1,0-4.61.25-5.55.25-1.12,0-5.54-.25-5.92-.25s-.68.12-.68.87,0,1,.56,1h2.3c1.31,0,4.68,3.24,5.11,4.36a13.51,13.51,0,0,1,.13,2.68c0,5.46-.07,10.48-.16,14.67.63,0,1.28,0,1.91.06,0-5.25.12-10.67.18-15.92,28.78,31,34,37.58,34.58,37.58s.93-.07.93-.88c0-5.92.75-35.2,1.12-37.38.82-4.55,1.88-5.17,6.92-5.17.31,0,.56-.19.56-1.06C235.66,22.63,235.54,22.2,235.16,22.2Z" transform="translate(-0.19 -21.58)"/></svg>