<svg version="1.1"
     xmlns="http://www.w3.org/2000/svg"
     xmlns:xlink="http://www.w3.org/1999/xlink"
     xmlns:ev="http://www.w3.org/2001/xml-events"
     baseProfile="full"
     id="logo" style="" preserveAspectRatio="xMinYMin meet" viewBox="0 0 173 67" aria-labelledby="title">
<title>ARIN Logo</title>
<desc>Logo of the American Registry for Internet Numbers</desc>
<switch>
<g>
<g id="stripe" class="logo-stripe">
<path fill="#009BC2" d="M143.3 34.9c1 1.1 2.1 2.2 3.2 3.4 1.4 0 2.8-0.1 4.1-0.1 0-1 0.1-2.1 0.1-3.2C148.4 35 145.9 34.9 143.3 34.9z"/>
<path fill="#009BC2" d="M152 35.1c0 1-0.1 2.1-0.1 3.1 13.1-0.4 21.1-0.9 21.1-1.6C173 36 165 35.5 152 35.1z"/>
<path fill="#009BC2" d="M26.5 38.4C8.5 38 0 37.3 0 36.6c0-0.7 9.2-1.4 27.8-1.8L26.5 38.4z"/>
<path fill="#009BC2" d="M66.1 35.7l-3.3-1.3c-11.7 0.1-24.4 0.2-33.9 0.4l-1.2 3.6c9.7 0.2 30.7 0.2 38.1 0.3L66.1 35.7z"/>
<path fill="#009BC2" d="M75 34.7c0 0.2 0.8 1.8 2.5 4.1 2.6 0 5.3 0 8 0 19.6 0 40.2-0.3 55.1-0.5l-3.1-3.4c-14.2-0.2-34-0.5-52.1-0.5 -3.5 0-6.8 0-10.2 0C75.1 34.5 75 34.6 75 34.7z"/>
</g>
<g id="main_letters" class="logo-main-letters">
<g>
<path fill="#FFF" d="M27.5 47.8c-2.2 0-2.2-1-2.2-1.5 0-0.7 0.6-2.7 2.4-7.4 0.1-0.2 0.2-0.3 0.2-0.5 0 0 0 0 0 0l1.2-3.6c0 0 0 0 0 0 1-3.1 3.8-10.7 4-10.7h0.1L37 34.7c1.5 0 3 0 4.5-0.1 -2.9-7.5-5.8-15.5-6-16 -0.2-0.5-0.4-0.5-0.7-0.5 -0.5 0-0.7 0-0.8 0.4 -4.2 10.3-7.5 19.5-10.1 27.1 -0.6 1.7-1.4 2.2-2.2 2.2 -1.2 0-1.6 0.2-1.6 0.6 0 0.5 0.1 0.7 0.3 0.7 0.3 0 0.8-0.1 3.4-0.1 5.1 0 5.7 0.1 6 0.1 0.4 0 0.5-0.2 0.5-0.7C30.3 48 30.1 47.8 27.5 47.8z"/>
<path fill="#FFF" d="M49.2 47.8c-1.7 0-2.6-0.5-3.3-2 -0.8-1.7-1.8-4.3-2.9-7.1 -1.5 0-3.1 0-4.5-0.1 0.9 2.3 3 7.3 3 8.3 0 0.7-0.6 0.9-2.3 0.9 -0.9 0-1.8 0.1-1.8 0.5 0 0.4 0 0.8 0.2 0.8 0.3 0 0.6-0.1 6.4-0.1 5.2 0 5.5 0.1 6 0.1 0.4 0 0.5-0.5 0.5-0.8C50.5 47.9 49.6 47.8 49.2 47.8z"/>
</g>
<path fill="#FFF" d="M67.1 34.2V22.9c0-2.8 0.6-3 3.2-3 4.9 0 7.4 3.2 7.4 7.1 0 3.9-1.9 7.2-7 7.2H67.1zM62.8 45.9c0 1.1-0.3 1.9-3 1.9 -1.2 0-1.2 0.3-1.2 0.7 0 0.4 0 0.6 0.3 0.6 0.3 0 0.5-0.1 6.1-0.1 6.4 0 6.5 0.1 6.8 0.1 0.3 0 0.3-0.2 0.3-0.6 0-0.5 0-0.7-1.2-0.7 -3.4 0-3.7-0.7-3.7-1.9 -0.1-2.1-0.1-10.5-0.1-10.5 1.8 0 2.8 0 4.5 1.7 1.5 1.5 4.4 7 7.9 11.6 0.3 0.3 0.4 0.3 0.8 0.3 0.2 0 0.4-0.1 3.1-0.1 3.1 0 3.3 0.1 3.5 0.1 0.4 0 0.5-0.2 0.5-0.7 0-0.2 0-0.5-0.3-0.5 -2.6 0-3-0.6-6.1-4.3 -4-4.8-6.1-8.7-6.1-8.9 0-0.2 0.3-0.3 0.5-0.3 4.7-1.9 6.9-3.9 6.9-8 0-6.1-6.1-7.8-11.1-7.8 -2.5 0-5.2 0.2-6.3 0.2 -2.7 0-5.8-0.2-6.1-0.2 -0.3 0-0.4 0.3-0.4 0.6 0 0.4 0 0.7 0.5 0.7 3.1 0 3.8 0.3 3.9 2.9C62.8 24.7 62.8 43.8 62.8 45.9z"/>
<g>
<path fill="#FFF" d="M96.9 19.9c3.7 0 4.5 0.3 4.5 2.9 0 2 0.1 11.7 0.1 11.7 1.4 0 2.8 0 4.2 0 0 0 0.1-9.8 0.1-11.7 0-2.5 0.8-2.9 4.5-2.9 0.5 0 0.5-0.3 0.5-0.7 0-0.3-0.1-0.6-0.4-0.6 -0.3 0-4.1 0.2-6.8 0.2 -2.7 0-6.4-0.2-6.8-0.2 -0.3 0-0.4 0.3-0.4 0.6C96.4 19.5 96.4 19.9 96.9 19.9z"/>
<path fill="#FFF" d="M109.6 47.8c-3.4 0-3.6-0.7-3.7-1.9 -0.1-2.1-0.1-4.9-0.1-6.7v-0.4c-1.4 0-2.8 0-4.2 0v0.4c0 1.8 0 4.6-0.1 6.7 0 1.1-0.3 1.9-3.7 1.9 -1.2 0-1.2 0.3-1.2 0.7 0 0.4 0 0.6 0.3 0.6 0.3 0 0.5-0.1 6.8-0.1 6.4 0 6.5 0.1 6.8 0.1 0.3 0 0.3-0.2 0.3-0.6C110.8 48 110.8 47.8 109.6 47.8z"/>
</g>
<g>
<path fill="#FFF" d="M130.6 47.8c-2.4 0-3.4-0.7-3.4-2.1 0-0.7-0.1-3.1-0.2-7.2 -0.5 0-0.9 0-1.4 0 -0.1 4.3-0.3 6.9-0.3 7.4 -0.2 1.6-1.9 1.9-2.9 1.9 -0.5 0-1.9 0.1-1.9 0.5 0 0.5 0 0.8 0.4 0.8 0.3 0 0.7-0.1 5.5-0.1 5.3 0 5.5 0.1 5.9 0.1 0.3 0 0.4-0.1 0.4-0.7C132.8 48 132.8 47.8 130.6 47.8z"/>
<path fill="#FFF" d="M157.3 18.6c-0.3 0-4.7 0.2-5.6 0.2 -1.2 0-5.5-0.2-6.2-0.2 -0.3 0-0.5 0.3-0.5 0.7 0 0.3 0.1 0.6 0.6 0.6 3.7 0 5.4 0.3 5.4 6.8 0 4.2-0.2 11.7-0.4 15.7 -9.6-9.8-16.4-17.9-21.4-23.5 -0.1-0.1-0.2-0.3-0.4-0.3 -0.7 0-3.2 0.2-3.8 0.2 -0.8 0-3.8-0.2-4.1-0.2 -0.3 0-0.5 0.1-0.5 0.6 0 0.4 0 0.7 0.4 0.7h1.6c0.9 0 3.2 2.2 3.5 3 0.1 0.2 0.1 1.1 0.1 1.8 0 3.7-0.1 7.2-0.1 10 0.4 0 0.9 0 1.3 0 0-3.6 0.1-7.3 0.1-10.9C147 45 150.7 49.6 151 49.6c0.4 0 0.6 0 0.6-0.6 0-4 0.5-24.1 0.8-25.6 0.6-3.1 1.3-3.5 4.8-3.5 0.2 0 0.4-0.1 0.4-0.7C157.6 18.9 157.5 18.6 157.3 18.6z"/>
</g>
</g>
</g>

</switch>
</svg>
